<svg width="32" height="32" viewBox="0 0 32 32" fill="none" xmlns="http://www.w3.org/2000/svg">
<path d="M28.6536 0H5.22873C3.38319 0 1.88232 1.9136 1.88232 4.26667V14.9333H5.22873V8.53333L15.9372 18.7733C16.227 19.05 16.5792 19.1995 16.9411 19.1995C17.3031 19.1995 17.6553 19.05 17.9451 18.7733L28.6536 8.53333V27.7333H15.2679V32H28.6536C30.4991 32 32 30.0864 32 27.7333V4.26667C32 1.9136 30.4991 0 28.6536 0ZM16.9411 14.4L6.34308 4.26667H27.5392L16.9411 14.4Z" fill="#CEFF09"/>
<path d="M0 16H11.7124V20H0V16ZM3.34641 22H13.3856V26H3.34641V22ZM8.36601 28H15.0588V32H8.36601V28Z" fill="#CEFF09"/>
</svg>
