<svg width="32" height="32" viewBox="0 0 32 32" fill="none" xmlns="http://www.w3.org/2000/svg">
<path d="M31.4121 25.0664L24.1102 18.4274C23.7651 18.1137 23.3115 17.9464 22.8453 17.9608C22.3791 17.9752 21.9367 18.1702 21.6116 18.5046L17.3131 22.9252C16.2784 22.7277 14.1983 22.0792 12.0572 19.9434C9.916 17.8005 9.26754 15.715 9.07534 14.6876L13.4924 10.3873C13.8273 10.0624 14.0226 9.61995 14.037 9.15361C14.0514 8.68727 13.8838 8.23362 13.5696 7.88867L6.93237 0.588624C6.6181 0.242584 6.18131 0.0326856 5.71476 0.00350594C5.24822 -0.0256737 4.78868 0.128165 4.43374 0.432348L0.5358 3.77521C0.225242 4.08689 0.0398802 4.50171 0.0148768 4.94099C-0.0120675 5.39005 -0.525805 16.0276 7.72274 24.2796C14.9187 31.4737 23.9324 32 26.4149 32C26.7777 32 27.0005 31.9892 27.0597 31.9856C27.499 31.961 27.9136 31.7749 28.2237 31.4629L31.5648 27.5632C31.8702 27.2094 32.0252 26.7502 31.9967 26.2837C31.9681 25.8172 31.7584 25.3804 31.4121 25.0664V25.0664Z" fill="#CEFF09"/>
</svg>
